HIERARCHY
ROOT Hips
{
	OFFSET 0.00000 0.00000 0.00000
	CHANNELS 6 Xposition Yposition Zposition Zrotation Yrotation Xrotation 
	JOINT LHipJoint
	{
		OFFSET 0 0 0
		CHANNELS 3 Zrotation Yrotation Xrotation
		JOINT LeftHip
		{
			OFFSET 1.75344 -1.53157 0.77399
			CHANNELS 3 Zrotation Yrotation Xrotation
			JOINT LeftKnee
			{
				OFFSET 2.25415 -6.19323 0.00000
				CHANNELS 3 Zrotation Yrotation Xrotation
				JOINT LeftAnkle
				{
					OFFSET 2.30342 -6.32861 0.00000
					CHANNELS 3 Zrotation Yrotation Xrotation
					JOINT LeftToe
					{
						OFFSET 0.10958 -0.30108 1.49206
						CHANNELS 3 Zrotation Yrotation Xrotation
						End Site
						{
							OFFSET 0.00000 -0.00000 0.77783
						}
					}
				}
			}
		}
	}
	JOINT RHipJoint
	{
		OFFSET 0 0 0
		CHANNELS 3 Zrotation Yrotation Xrotation
		JOINT RightHip
		{
			OFFSET -1.81912 -1.53156 0.77399
			CHANNELS 3 Zrotation Yrotation Xrotation
			JOINT RightKnee
			{
				OFFSET -2.22882 -6.12365 0.00000
				CHANNELS 3 Zrotation Yrotation Xrotation
				JOINT RightAnkle
				{
					OFFSET -2.21943 -6.09785 0.00000
					CHANNELS 3 Zrotation Yrotation Xrotation
					JOINT RightToe
					{
						OFFSET -0.18931 -0.52012 1.59379
						CHANNELS 3 Zrotation Yrotation Xrotation
						End Site
						{
							OFFSET -0.00000 -0.00000 0.84686
						}
					}
				}
			}
		}
	}
	JOINT lowerback
	{
		OFFSET 0 0 0
		CHANNELS 3 Zrotation Yrotation Xrotation
		JOINT Chest
		{
			OFFSET -0.00200 1.66634 -0.14248
			CHANNELS 3 Zrotation Yrotation Xrotation
			JOINT Chest2
			{
				OFFSET -0.00875 1.64542 0.09514
				CHANNELS 3 Zrotation Yrotation Xrotation
				JOINT lowerneck
				{
					OFFSET 0 0 0
					CHANNELS 3 Zrotation Yrotation Xrotation
					JOINT Neck
					{
						OFFSET 0.02257 1.59605 0.00839
						CHANNELS 3 Zrotation Yrotation Xrotation
						JOINT Head
						{
							OFFSET -0.10214 1.57530 -0.23335
							CHANNELS 3 Zrotation Yrotation Xrotation
							End Site
							{
								OFFSET -0.03588 1.60717 -0.08062
							}
						}
					}
				}
				JOINT LeftCollar
				{
					OFFSET 0 0 0
					CHANNELS 3 Zrotation Yrotation Xrotation
					JOINT LeftShoulder
					{
						OFFSET 2.54983 1.10186 0.40078
CHANNELS 3 Zrotation Xrotation Yrotation
						JOINT LeftElbow
						{
OFFSET 0 -4.288400 0.000000
CHANNELS 3 Zrotation Xrotation Yrotation
							JOINT LeftWrist
							{
OFFSET 0 -3.065520 -0.000000
CHANNELS 3 Zrotation Xrotation Yrotation
								JOINT lhand
								{
									OFFSET 0 0 0
CHANNELS 3 Zrotation Xrotation Yrotation
									JOINT LFingers
									{
OFFSET 0 -0.753040 0.000000
CHANNELS 3 Zrotation Xrotation Yrotation
										End Site
										{
OFFSET 0 -0.607120 0.000000
										}
									}
								}
								JOINT LThumb
								{
OFFSET 0 0.000000 0.000000
CHANNELS 3 Zrotation Xrotation Yrotation
									End Site
									{
OFFSET 0 -0.616390 0.616390
									}
								}
							}
						}
					}
				}
				JOINT RightCollar
				{
					OFFSET 0 0 0
					CHANNELS 3 Zrotation Yrotation Xrotation
					JOINT RightShoulder
					{
						OFFSET -2.60909 1.35448 0.21802
CHANNELS 3 Zrotation Xrotation Yrotation
						JOINT RightElbow
						{
OFFSET 0 -4.521720 -0.000000
CHANNELS 3 Zrotation Xrotation Yrotation
							JOINT RightWrist
							{
OFFSET 0 -2.891400 0.000000
CHANNELS 3 Zrotation Xrotation Yrotation
								JOINT rhand
								{
									OFFSET 0 0 0
CHANNELS 3 Zrotation Xrotation Yrotation
									JOINT RFingers
									{
OFFSET 0 -0.680540 0.000000
CHANNELS 3 Zrotation Xrotation Yrotation
										End Site
										{
OFFSET 0 -0.548670 0.000000
										}
									}
								}
								JOINT RThumb
								{
OFFSET 0 0.000000 0.000000
CHANNELS 3 Zrotation Xrotation Yrotation
									End Site
									{
OFFSET 0 -0.557050 0.557050
									}
								}
							}
						}
					}
				}
			}
		}
	}
}
MOTION
Frames: 12
Frame Time: 0.008333333333333333
8.874300 15.476400 22.580800 -178.923000 2.483600 178.853000 0.000000 0.000000 0.000000 -25.066800 -20.785100 2.237200 1.643500 8.080400 22.958400 0.864300 13.145800 -26.774800 2.756100 -10.289300 -29.918700 0.000000 0.000000 0.000000 26.768500 16.119100 7.929600 -0.627900 -5.070600 14.109900 -0.132800 -19.531100 -28.622000 -0.042500 1.330900 -3.659800 1.292800 1.103600 8.095100 -0.168200 1.707700 -4.559600 -1.184900 0.774400 -9.354700 -5.019900 -1.185700 -9.055200 5.251900 -1.780800 12.246900 2.328900 -0.828500 5.258700 -0.000000 -0.000000 0.000000 2.016200 10.517300 -29.947100 23.444900 -34.571800 7.389200 6.520200 0.637400 38.190100 0.000000 0.000000 0.000000 -7.125000 0.000000 0.000000 -14.579900 -7.305900 -16.837200 -0.000000 -0.000000 0.000000 -1.277300 8.556600 29.169200 -21.283300 -32.157500 -6.200000 1.721200 20.341400 50.676100 0.000000 0.000000 0.000000 7.125000 0.000000 -0.000000 67.500200 69.933400 -46.677600
8.876756 15.481016 22.568611 -178.985287 3.140443 178.981033 0.000000 0.000000 0.000000 -25.075721 -20.449486 2.147417 1.636325 8.063425 22.906892 0.818877 13.552719 -26.829877 2.910102 -10.548136 -30.770671 0.000000 0.000000 0.000000 26.667754 16.437241 7.860166 -0.628780 -5.073989 14.119616 -0.143970 -19.204831 -28.272610 -0.059880 1.574265 -4.330452 1.181471 1.213568 7.959159 -0.144485 1.844924 -4.582894 -1.115575 0.850669 -9.300196 -4.913810 -1.072647 -8.951845 5.119768 -1.610765 12.005754 2.281534 -0.746637 5.155806 0.000000 0.000000 0.000000 1.913045 10.520033 -29.536330 23.115659 -34.214795 7.203294 6.363166 1.052858 37.730329 0.000000 0.000000 0.000000 -7.125000 0.000000 0.000000 -14.625674 -6.843348 -16.790172 0.000000 0.000000 0.000000 -1.160652 8.715537 29.210431 -21.295112 -32.171006 -6.206415 2.434310 19.603897 50.843903 0.000000 0.000000 0.000000 7.125000 0.000000 0.000000 68.387816 69.755989 -47.245701
8.880607 15.486477 22.558177 -179.063896 3.825843 179.251514 0.000000 0.000000 0.000000 -25.033117 -20.161446 1.903502 1.620909 8.027377 22.797243 0.801648 13.842193 -26.989469 2.909685 -10.547321 -30.768053 0.000000 0.000000 0.000000 26.509901 16.861053 7.561579 -0.643047 -5.129902 14.279391 -0.144975 -18.930556 -27.917649 -0.096165 1.992171 -5.484272 0.927662 1.336952 7.738713 -0.059354 1.993032 -4.663421 -0.901300 0.944971 -9.265798 -4.989172 -0.936999 -8.924923 5.152969 -1.406668 11.824826 2.318155 -0.644867 5.085196 0.000000 0.000000 0.000000 1.711937 10.541611 -29.033545 22.792498 -33.860951 7.022402 5.967196 1.642139 37.736314 0.000000 0.000000 0.000000 -7.125000 0.000000 0.000000 -14.830971 -6.799234 -17.031806 0.000000 0.000000 0.000000 -1.265656 9.091209 29.405687 -21.483139 -32.387493 -6.306979 3.670098 18.582350 50.655156 0.000000 0.000000 0.000000 7.125000 0.000000 0.000000 68.746858 69.261916 -46.957991
8.882275 15.487658 22.550617 -179.094344 4.304575 179.410828 0.000000 0.000000 0.000000 -25.002178 -20.012707 1.776244 1.608325 7.997609 22.706814 0.795816 14.000106 -27.104587 2.843875 -10.437425 -30.405743 0.000000 0.000000 0.000000 26.421582 17.088296 7.335456 -0.657794 -5.187256 14.443509 -0.158035 -18.710604 -27.727241 -0.122670 2.257579 -6.218072 0.789512 1.378636 7.658930 0.009070 2.043090 -4.727541 -0.758028 0.982092 -9.295090 -5.013019 -0.872689 -8.868436 5.204655 -1.189226 11.641655 2.357178 -0.481873 5.009260 0.000000 0.000000 0.000000 1.604622 10.731889 -28.646930 22.618006 -33.668362 6.925312 5.669057 2.035421 37.976454 0.000000 0.000000 0.000000 -7.125000 0.000000 0.000000 -15.002349 -6.993469 -17.286775 0.000000 0.000000 0.000000 -1.359456 9.107718 29.509993 -21.206971 -32.069074 -6.159484 4.115240 18.466966 49.948705 0.000000 0.000000 0.000000 7.125000 0.000000 0.000000 67.364839 68.830463 -45.204827
8.881352 15.484885 22.544035 -179.126127 4.515274 179.393895 0.000000 0.000000 0.000000 -25.047915 -19.911338 1.856097 1.597177 7.971087 22.626396 0.854884 13.808667 -27.353492 2.623256 -10.053719 -29.155350 0.000000 0.000000 0.000000 26.378806 17.106928 7.260213 -0.674905 -5.253064 14.631787 -0.169735 -18.561690 -27.621225 -0.101901 2.052608 -5.651268 0.822138 1.320050 7.726883 -0.021342 1.964723 -4.724104 -0.798429 0.939858 -9.330546 -4.807059 -0.860298 -8.700800 5.160164 -1.001352 11.319358 2.326901 -0.305204 4.872420 0.000000 0.000000 0.000000 1.637783 10.988182 -28.185563 22.541614 -33.583678 6.883017 5.071824 2.721773 37.655832 0.000000 0.000000 0.000000 -7.125000 0.000000 0.000000 -15.288877 -6.613647 -17.550727 0.000000 0.000000 0.000000 -1.320381 9.331288 29.650564 -21.255398 -32.125168 -6.185259 4.547068 18.204518 49.929589 0.000000 0.000000 0.000000 7.125000 0.000000 0.000000 67.617103 68.678605 -45.236568
8.880879 15.483270 22.536582 -179.193018 4.896095 179.396277 0.000000 0.000000 0.000000 -25.133810 -19.779697 1.927322 1.588382 7.950141 22.562832 0.916663 13.694575 -27.697330 2.394782 -9.643214 -27.829549 0.000000 0.000000 0.000000 26.288463 17.228767 7.186678 -0.690104 -5.310792 14.797273 -0.130205 -18.439128 -27.151117 -0.070397 1.705577 -4.692835 0.846590 1.341600 7.791465 -0.097076 1.989448 -4.724831 -0.898334 0.946453 -9.365499 -4.621305 -0.755255 -8.603892 5.169465 -0.889309 11.011186 2.304036 -0.247562 4.754496 0.000000 0.000000 0.000000 1.705056 11.172943 -27.670639 22.354518 -33.375129 6.779889 4.600929 3.513332 37.497330 0.000000 0.000000 0.000000 -7.125000 0.000000 0.000000 -15.521526 -6.406054 -17.788337 0.000000 0.000000 0.000000 -1.262017 9.589385 29.729992 -21.356372 -32.241957 -6.239021 5.018872 17.956813 50.281458 0.000000 0.000000 0.000000 7.125000 0.000000 0.000000 68.755472 68.664581 -46.218267
8.881538 15.484059 22.528453 -179.232970 5.182380 179.426095 0.000000 0.000000 0.000000 -25.170185 -19.674895 1.968377 1.578768 7.927124 22.493025 0.925169 13.714151 -27.778269 2.345947 -9.552362 -27.538901 0.000000 0.000000 0.000000 26.242277 17.372182 7.090592 -0.704344 -5.364043 14.949907 -0.037242 -18.475823 -26.457398 -0.047437 1.401337 -3.853773 0.872376 1.326220 7.902000 -0.137142 1.969298 -4.745882 -0.956073 0.932296 -9.452220 -4.466861 -0.647035 -8.687090 5.132478 -0.759837 10.852751 2.274279 -0.182856 4.712480 0.000000 0.000000 0.000000 1.713840 11.358165 -27.107676 22.115302 -33.106935 6.648750 4.388192 4.146155 37.828504 0.000000 0.000000 0.000000 -7.125000 0.000000 0.000000 -15.651846 -6.699331 -18.020086 0.000000 0.000000 0.000000 -1.302032 9.764169 29.680209 -21.377978 -32.266878 -6.250500 5.720107 17.592928 50.474402 0.000000 0.000000 0.000000 7.125000 0.000000 0.000000 69.673938 68.508193 -46.834083
8.884079 15.485394 22.521066 -179.279018 5.598718 179.500364 0.000000 0.000000 0.000000 -25.183274 -19.531392 1.945849 1.568232 7.901891 22.416443 0.946385 13.755467 -27.972495 2.242792 -9.354206 -26.909835 0.000000 0.000000 0.000000 26.176390 17.615392 6.947625 -0.716489 -5.409029 15.079111 0.048074 -18.441749 -25.701780 -0.028551 1.088287 -2.991785 0.755441 1.326401 7.972347 -0.081304 1.960838 -4.759962 -0.832200 0.936953 -9.515397 -4.368201 -0.491592 -8.753474 5.049942 -0.555694 10.621538 2.243739 -0.088613 4.641988 0.000000 0.000000 0.000000 1.636055 11.645362 -26.575868 21.997587 -32.974208 6.584558 4.200491 4.519745 38.009003 0.000000 0.000000 0.000000 -7.125000 0.000000 0.000000 -15.759562 -6.850991 -18.190402 0.000000 0.000000 0.000000 -1.536320 9.809492 29.643268 -21.282290 -32.156333 -6.199455 6.417564 17.091781 49.945860 0.000000 0.000000 0.000000 7.125000 0.000000 0.000000 68.946679 68.067516 -45.630341
8.885125 15.486650 22.507594 -179.271456 6.311257 179.605624 0.000000 0.000000 0.000000 -25.175884 -19.386247 1.962184 1.556337 7.873435 22.330272 0.980437 13.899367 -28.354471 2.051887 -8.972639 -25.710414 0.000000 0.000000 0.000000 26.139902 17.972992 6.825619 -0.727122 -5.448348 15.192041 0.101038 -18.201601 -24.898165 -0.014762 0.785507 -2.158895 0.665902 1.438642 8.009126 0.007738 2.113493 -4.831550 -0.714305 1.020695 -9.620773 -4.289731 -0.365099 -8.659602 4.924551 -0.385857 10.315712 2.199753 -0.016335 4.523852 0.000000 0.000000 0.000000 1.553172 12.090852 -26.096735 21.932655 -32.900765 6.549283 3.951381 4.836207 37.845927 0.000000 0.000000 0.000000 -7.125000 0.000000 0.000000 -15.877538 -6.666650 -18.292121 0.000000 0.000000 0.000000 -1.811966 9.983001 29.619189 -21.202886 -32.064439 -6.157320 6.687386 16.884221 49.714774 0.000000 0.000000 0.000000 7.125000 0.000000 0.000000 68.616497 67.884961 -45.106971
8.883881 15.486067 22.489495 -179.242878 6.907583 179.607489 0.000000 0.000000 0.000000 -25.235157 -19.348188 2.199710 1.540718 7.835583 22.215794 1.037427 13.962606 -28.816276 1.793907 -8.421659 -24.003164 0.000000 0.000000 0.000000 26.169624 18.213766 6.837639 -0.738348 -5.489471 15.310026 0.187226 -18.148652 -24.037022 -0.012937 0.731048 -2.009185 0.985654 1.536367 6.743041 -0.111289 2.220957 -4.079874 -0.975313 1.056669 -8.038274 -4.139606 -0.271464 -8.842394 4.965972 -0.283002 9.392712 2.187109 0.028395 4.266847 0.000000 0.000000 0.000000 1.699125 11.183218 -25.530587 21.703299 -32.640028 6.425059 3.692136 5.316564 37.696475 0.000000 0.000000 0.000000 -7.125000 0.000000 0.000000 -16.002022 -6.494861 -18.404447 0.000000 0.000000 0.000000 -1.743427 8.926609 29.366122 -21.062075 -31.900671 -6.082731 6.860305 16.840932 49.888345 0.000000 0.000000 0.000000 7.125000 0.000000 0.000000 69.121439 67.899353 -45.569063
8.886986 15.490432 22.490191 -179.281137 6.822986 179.670389 0.000000 0.000000 0.000000 -25.207119 -19.371673 2.232940 1.521847 7.789666 22.076995 1.085844 13.598913 -28.811894 1.632019 -8.051999 -22.873004 0.000000 0.000000 0.000000 26.170995 18.329659 6.735166 -0.749547 -5.529807 15.426059 0.299700 -18.471457 -23.469104 -0.006427 0.500137 -1.374352 1.051375 1.378015 7.210115 -0.176988 2.024612 -4.300095 -1.074850 0.950839 -8.549085 -4.114715 -0.126153 -8.729316 5.103330 -0.104582 9.328157 2.235522 0.124386 4.219758 0.000000 0.000000 0.000000 1.781982 11.723271 -25.041514 21.612279 -32.536037 6.376041 3.682086 5.612776 37.671650 0.000000 0.000000 0.000000 -7.125000 0.000000 0.000000 -16.005790 -6.469906 -18.402932 0.000000 0.000000 0.000000 -1.780668 9.299155 29.124926 -21.002536 -31.831256 -6.051288 6.964325 16.903810 49.650189 0.000000 0.000000 0.000000 7.125000 0.000000 0.000000 68.667571 67.767958 -45.001884
8.891092 15.496838 22.484633 -179.276569 6.820906 179.715431 0.000000 0.000000 0.000000 -25.163949 -19.382313 2.330969 1.497507 7.729941 21.896733 1.096269 13.457332 -28.752939 1.545994 -7.848421 -22.254751 0.000000 0.000000 0.000000 26.255662 18.581461 6.687461 -0.765291 -5.586251 15.588528 0.365642 -18.694399 -23.182661 -0.001192 0.184728 -0.507553 1.084493 1.252242 7.141391 -0.157520 1.857151 -4.243397 -1.045699 0.868243 -8.450773 -4.131291 0.035527 -8.621628 5.183656 0.107010 9.052884 2.272940 0.228145 4.107612 0.000000 0.000000 0.000000 1.718330 11.895265 -24.420313 21.487138 -32.392552 6.308917 3.428213 6.090684 37.514928 0.000000 0.000000 0.000000 -7.125000 0.000000 0.000000 -16.128008 -6.292513 -18.510170 0.000000 0.000000 0.000000 -1.982092 9.324986 28.951433 -20.952251 -31.772545 -6.024770 7.106444 16.892430 49.744489 0.000000 0.000000 0.000000 7.125000 0.000000 0.000000 68.973957 67.759991 -45.261130
